<mxfile host="app.diagrams.net" agent="Mozilla/5.0 (Windows NT 10.0; Win64; x64) AppleWebKit/537.36 (KHTML, like Gecko) Chrome/128.0.0.0 Safari/537.36" version="24.7.8">
  <diagram id="l8hXMBHkgcEJcSW0mbfh" name="Page-1">
    <mxGraphModel dx="683" dy="354" grid="1" gridSize="10" guides="1" tooltips="1" connect="1" arrows="1" fold="1" page="1" pageScale="1" pageWidth="1169" pageHeight="827" math="0" shadow="0">
      <root>
        <mxCell id="0" />
        <mxCell id="1" parent="0" />
        <mxCell id="WgsA7VwGGcP-6zQJCZ4s-1" value="" style="rounded=0;whiteSpace=wrap;html=1;" vertex="1" parent="1">
          <mxGeometry x="250" y="110" width="680" height="290" as="geometry" />
        </mxCell>
        <mxCell id="WgsA7VwGGcP-6zQJCZ4s-5" value="" style="shape=image;verticalLabelPosition=bottom;verticalAlign=top;imageAspect=0;aspect=fixed;image=data:image/svg+xml,PHN2ZyB4bWxucz0iaHR0cDovL3d3dy53My5vcmcvMjAwMC9zdmciIHZlcnNpb249IjEiIHZpZXdCb3g9IjAgMCA0OCA0OCIgZW5hYmxlLWJhY2tncm91bmQ9Im5ldyAwIDAgNDggNDgiPiYjeGE7ICAgIDxnIGZpbGw9IiNEMUM0RTkiPiYjeGE7ICAgICAgICA8cGF0aCBkPSJNMzgsN0gxMEM4LjksNyw4LDcuOSw4LDl2NmMwLDEuMSwwLjksMiwyLDJoMjhjMS4xLDAsMi0wLjksMi0yVjlDNDAsNy45LDM5LjEsNywzOCw3eiIvPiYjeGE7ICAgICAgICA8cGF0aCBkPSJNMzgsMTlIMTBjLTEuMSwwLTIsMC45LTIsMnY2YzAsMS4xLDAuOSwyLDIsMmgyOGMxLjEsMCwyLTAuOSwyLTJ2LTZDNDAsMTkuOSwzOS4xLDE5LDM4LDE5eiIvPiYjeGE7ICAgICAgICA8cGF0aCBkPSJNMzgsMzFIMTBjLTEuMSwwLTIsMC45LTIsMnY2YzAsMS4xLDAuOSwyLDIsMmgyOGMxLjEsMCwyLTAuOSwyLTJ2LTZDNDAsMzEuOSwzOS4xLDMxLDM4LDMxeiIvPiYjeGE7ICAgIDwvZz4mI3hhOzwvc3ZnPg==;" vertex="1" parent="1">
          <mxGeometry x="296" y="141" width="48" height="48" as="geometry" />
        </mxCell>
        <mxCell id="WgsA7VwGGcP-6zQJCZ4s-6" value="StampClassify IPAI" style="text;strokeColor=none;fillColor=none;html=1;fontSize=24;fontStyle=1;verticalAlign=middle;align=center;" vertex="1" parent="1">
          <mxGeometry x="250" y="70" width="242" height="40" as="geometry" />
        </mxCell>
        <mxCell id="WgsA7VwGGcP-6zQJCZ4s-9" value="Database&#xa;(印章)" style="shape=table;startSize=0;container=1;collapsible=0;childLayout=tableLayout;fontSize=18;fillColor=none;strokeColor=none;" vertex="1" parent="1">
          <mxGeometry x="290" y="180" width="60" height="60" as="geometry" />
        </mxCell>
        <mxCell id="WgsA7VwGGcP-6zQJCZ4s-15" value="" style="shape=image;verticalLabelPosition=bottom;verticalAlign=top;imageAspect=0;aspect=fixed;image=data:image/svg+xml,PHN2ZyB4bWxucz0iaHR0cDovL3d3dy53My5vcmcvMjAwMC9zdmciIHZlcnNpb249IjEiIHZpZXdCb3g9IjAgMCA0OCA0OCIgZW5hYmxlLWJhY2tncm91bmQ9Im5ldyAwIDAgNDggNDgiPiYjeGE7ICAgIDxnIGZpbGw9IiNEMUM0RTkiPiYjeGE7ICAgICAgICA8cGF0aCBkPSJNMzgsN0gxMEM4LjksNyw4LDcuOSw4LDl2NmMwLDEuMSwwLjksMiwyLDJoMjhjMS4xLDAsMi0wLjksMi0yVjlDNDAsNy45LDM5LjEsNywzOCw3eiIvPiYjeGE7ICAgICAgICA8cGF0aCBkPSJNMzgsMTlIMTBjLTEuMSwwLTIsMC45LTIsMnY2YzAsMS4xLDAuOSwyLDIsMmgyOGMxLjEsMCwyLTAuOSwyLTJ2LTZDNDAsMTkuOSwzOS4xLDE5LDM4LDE5eiIvPiYjeGE7ICAgICAgICA8cGF0aCBkPSJNMzgsMzFIMTBjLTEuMSwwLTIsMC45LTIsMnY2YzAsMS4xLDAuOSwyLDIsMmgyOGMxLjEsMCwyLTAuOSwyLTJ2LTZDNDAsMzEuOSwzOS4xLDMxLDM4LDMxeiIvPiYjeGE7ICAgIDwvZz4mI3hhOyAgICA8Y2lyY2xlIGZpbGw9IiM0M0EwNDciIGN4PSIzOCIgY3k9IjM4IiByPSIxMCIvPiYjeGE7ICAgIDxwb2x5Z29uIGZpbGw9IiNEQ0VEQzgiIHBvaW50cz0iNDIuNSwzMy4zIDM2LjgsMzkgMzQuMSwzNi4zIDMyLDM4LjUgMzYuOCw0My4zIDQ0LjYsMzUuNSIvPiYjeGE7PC9zdmc+;" vertex="1" parent="1">
          <mxGeometry x="631" y="141" width="48" height="48" as="geometry" />
        </mxCell>
        <mxCell id="WgsA7VwGGcP-6zQJCZ4s-17" value="印章影像的預處理" style="shape=table;startSize=0;container=1;collapsible=0;childLayout=tableLayout;fontSize=18;fillColor=none;strokeColor=none;" vertex="1" parent="1">
          <mxGeometry x="437" y="170" width="60" height="60" as="geometry" />
        </mxCell>
        <mxCell id="WgsA7VwGGcP-6zQJCZ4s-18" value="" style="shape=image;verticalLabelPosition=bottom;verticalAlign=top;imageAspect=0;aspect=fixed;image=data:image/svg+xml,PHN2ZyB4bWxucz0iaHR0cDovL3d3dy53My5vcmcvMjAwMC9zdmciIHZlcnNpb249IjEiIHZpZXdCb3g9IjAgMCA0OCA0OCIgZW5hYmxlLWJhY2tncm91bmQ9Im5ldyAwIDAgNDggNDgiPiYjeGE7ICAgIDxnIGZpbGw9IiNEMUM0RTkiPiYjeGE7ICAgICAgICA8cGF0aCBkPSJNMzgsN0gxMEM4LjksNyw4LDcuOSw4LDl2NmMwLDEuMSwwLjksMiwyLDJoMjhjMS4xLDAsMi0wLjksMi0yVjlDNDAsNy45LDM5LjEsNywzOCw3eiIvPiYjeGE7ICAgICAgICA8cGF0aCBkPSJNMzgsMTlIMTBjLTEuMSwwLTIsMC45LTIsMnY2YzAsMS4xLDAuOSwyLDIsMmgyOGMxLjEsMCwyLTAuOSwyLTJ2LTZDNDAsMTkuOSwzOS4xLDE5LDM4LDE5eiIvPiYjeGE7ICAgICAgICA8cGF0aCBkPSJNMzgsMzFIMTBjLTEuMSwwLTIsMC45LTIsMnY2YzAsMS4xLDAuOSwyLDIsMmgyOGMxLjEsMCwyLTAuOSwyLTJ2LTZDNDAsMzEuOSwzOS4xLDMxLDM4LDMxeiIvPiYjeGE7ICAgIDwvZz4mI3hhOyAgICA8ZyBmaWxsPSIjMjE5NkYzIj4mI3hhOyAgICAgICAgPHBvbHlnb24gcG9pbnRzPSIzMSwzMCAzOCwzNS42IDM4LDI0LjQiLz4mI3hhOyAgICAgICAgPHBhdGggZD0iTTM4LDI4Yy0wLjMsMC0wLjcsMC0xLDAuMXY0YzAuMy0wLjEsMC43LTAuMSwxLTAuMWMzLjMsMCw2LDIuNyw2LDZzLTIuNyw2LTYsNnMtNi0yLjctNi02IGMwLTAuMywwLTAuNiwwLjEtMC45bC0zLjQtMi43QzI4LjMsMzUuNSwyOCwzNi43LDI4LDM4YzAsNS41LDQuNSwxMCwxMCwxMHMxMC00LjUsMTAtMTBTNDMuNSwyOCwzOCwyOHoiLz4mI3hhOyAgICA8L2c+JiN4YTs8L3N2Zz4=;" vertex="1" parent="1">
          <mxGeometry x="455" y="141" width="48" height="48" as="geometry" />
        </mxCell>
        <mxCell id="WgsA7VwGGcP-6zQJCZ4s-22" value="添加擴充並增加資料庫" style="shape=table;startSize=0;container=1;collapsible=0;childLayout=tableLayout;fontSize=18;fillColor=none;strokeColor=none;" vertex="1" parent="1">
          <mxGeometry x="628" y="170" width="60" height="60" as="geometry" />
        </mxCell>
      </root>
    </mxGraphModel>
  </diagram>
</mxfile>
